<?xml version="1.0" encoding="utf-8"?>
<!-- Generator: Adobe Illustrator 24.2.3, SVG Export Plug-In . SVG Version: 6.00 Build 0)  -->
<svg version="1.1" id="Layer_1" xmlns="http://www.w3.org/2000/svg" xmlns:xlink="http://www.w3.org/1999/xlink" x="0px" y="0px"
	 viewBox="0 0 474 90" style="enable-background:new 0 0 474 90;" xml:space="preserve">
<g id="_x35_ba33bef-1299-419b-8601-2b88cb6719d3" transform="matrix(4.363636363636363,0,0,4.363636363636363,106.9890886220065,-0.5781812884590778)">
	<path d="M0.7,14.4h4.4c2.7,0,4.6-1.7,4.6-4.9c0-3.2-2-4.9-4.6-4.9H0.7v0.8h1v8.2h-1V14.4z M3.5,5.5h1.3c1.9,0,2.9,1,2.9,3v2.1
		c0,1.9-1,3-2.9,3H3.5V5.5z M13.2,14.5c1.3,0,1.8-0.6,2.1-1.3h0.1v0c0,0.7,0.4,1.2,1.3,1.2c0.5,0,1-0.1,1.2-0.3v-0.7h-1V9.3
		c0-1.5-0.9-2.4-2.7-2.4c-1.9,0-3,0.9-3,1.7c0,0.6,0.4,0.9,0.9,0.9c0.6,0,0.9-0.4,0.9-0.9c0-0.4-0.2-0.6-0.5-0.7V7.9
		c0.3-0.1,0.6-0.2,1-0.2c1.1,0,1.6,0.6,1.6,1.7v0.9h-1c-2.3,0-3.3,0.7-3.3,2.2C11,13.8,11.8,14.5,13.2,14.5z M13.9,13.5
		c-0.7,0-1.2-0.3-1.2-1v-0.3c0-0.8,0.5-1.2,1.8-1.2h0.8v1.2C15.3,13.1,14.7,13.5,13.9,13.5z M20.8,5.8c0.6,0,1-0.4,1-1V4.7
		c0-0.6-0.4-1-1-1c-0.6,0-1,0.4-1,1v0.1C19.8,5.4,20.2,5.8,20.8,5.8z M19,14.4h3.6v-0.8h-1V6.9L19,7.4v0.6l1,0.2v5.3h-1V14.4z
		 M23.5,14.4h3.6v-0.8h-1v-10l-2.7,0.5v0.6l1,0.2v8.7h-1V14.4z M29.3,17.3c1.2,0,1.9-0.9,2.3-2l3-7.5h0.7V7.1h-2.6v0.8h0.9L32,12.6
		h-0.1l-1.8-4.7H31V7.1h-3.4v0.8h0.7l2.8,6.8l-0.2,0.6c-0.4,0.9-0.8,1.4-1.3,1.4c-0.1,0-0.2,0-0.3,0l0,0c0.1-0.1,0.3-0.3,0.3-0.6
		c0-0.5-0.3-0.9-0.9-0.9c-0.6,0-0.9,0.4-0.9,0.9C27.7,16.8,28.3,17.3,29.3,17.3z M38.7,14.4h1.7l2.1-7.6h0l2.1,7.6h1.7l2.3-9h0.7
		V4.6h-3v0.8h1.2l-1.7,7.3h-0.1l-2.1-8.1h-1.6L40,12.6h-0.1l-1.7-7.3h1.2V4.6h-3.8v0.8h0.7L38.7,14.4z M51.7,14.5
		c1.3,0,1.8-0.6,2.1-1.3h0.1v0c0,0.7,0.4,1.2,1.3,1.2c0.5,0,0.9-0.1,1.2-0.3v-0.7h-1V9.3c0-1.5-1-2.4-2.7-2.4c-1.9,0-3,0.9-3,1.7
		c0,0.6,0.4,0.9,0.9,0.9c0.6,0,0.9-0.4,0.9-0.9c0-0.4-0.2-0.6-0.5-0.7V7.9c0.3-0.1,0.6-0.2,1-0.2c1.1,0,1.6,0.6,1.6,1.7v0.9h-1
		c-2.3,0-3.3,0.7-3.3,2.2C49.4,13.8,50.2,14.5,51.7,14.5z M52.3,13.5c-0.7,0-1.2-0.3-1.2-1v-0.3c0-0.8,0.5-1.2,1.8-1.2h0.8v1.2
		C53.7,13.1,53.1,13.5,52.3,13.5z M57.2,14.4h3.6v-0.8h-1v-10l-2.7,0.5v0.6l1,0.2v8.7h-1V14.4z M61.7,14.4h3.6v-0.8h-0.9v-1.7
		l1.1-1.1l1.7,2.8h-0.8v0.8h3.4v-0.8h-0.8l-2.5-3.9l1.8-1.8h1.1V7.1h-3.3v0.8h1l-1.7,1.8l-1,1.2h-0.1V3.6l-2.7,0.5v0.6l1,0.2v8.7h-1
		V14.4z M73.8,14.5c1.7,0,2.7-1,3-2l-0.6-0.4c-0.3,0.7-1,1.2-2.1,1.2c-1.2,0-2-0.8-2-2.2v-0.4H77v-0.4c0-2-1.3-3.4-3.3-3.4
		c-2,0-3.4,1.5-3.4,3.8C70.3,13,71.5,14.5,73.8,14.5z M72.1,9.7c0-1.3,0.6-2,1.6-2c1,0,1.5,0.7,1.5,2v0.2h-3.1V9.7z M78.1,14.4H82
		v-0.8h-1.3V9.2c0-0.7,0.7-1.5,1.4-1.5c0.1,0,0.2,0,0.3,0l0,0c-0.2,0-0.3,0.3-0.3,0.6c0,0.5,0.4,0.8,1,0.8c0.6,0,1-0.4,1-1.1
		c0-0.8-0.6-1.3-1.5-1.3c-1,0-1.5,0.6-1.8,1.3h-0.1V6.9l-2.6,0.5v0.6l1,0.2v5.3h-1V14.4z"/>
</g>
<g id="_x33_63314e7-365e-44d7-afca-5c230ec563cc" transform="matrix(2.8125,0,0,2.8125,0,0)">
	<path d="M16,16.3l0.7-0.7l10.4,10.4l-0.7,0.7L16,16.3z"/>
	<path d="M4.9,26.4L26,5.3L26.7,6L5.6,27.1L4.9,26.4z"/>
	<path d="M31,1v4.2h-4.2V1H31 M32,0h-6.2v6.2H32V0z M31,26.8V31h-4.2v-4.2H31 M32,25.8h-6.2V32H32V25.8z M5.2,26.8V31H1v-4.2H5.2
		 M6.2,25.8H0V32h6.2V25.8z"/>
</g>
</svg>
