<svg data-v-423bf9ae="" xmlns="http://www.w3.org/2000/svg" viewBox="0 0 474 90" class="iconLeft"><!----><!----><!----><g data-v-423bf9ae="" id="5ba33bef-1299-419b-8601-2b88cb6719d3" fill="white" transform="matrix(4.363636363636363,0,0,4.363636363636363,106.9890886220065,-0.5781812884590778)"><path d="M0.69 14.35L5.10 14.35C7.77 14.35 9.72 12.66 9.72 9.46C9.72 6.27 7.77 4.58 5.10 4.58L0.69 4.58L0.69 5.36L1.72 5.36L1.72 13.57L0.69 13.57ZM3.50 5.45L4.83 5.45C6.75 5.45 7.74 6.47 7.74 8.40L7.74 10.53C7.74 12.46 6.75 13.48 4.83 13.48L3.50 13.48ZM13.23 14.52C14.55 14.52 15.06 13.89 15.34 13.27L15.41 13.27L15.41 13.30C15.41 14.01 15.82 14.52 16.72 14.52C17.21 14.52 17.67 14.39 17.93 14.24L17.93 13.58L16.97 13.58L16.97 9.27C16.97 7.78 16.02 6.90 14.24 6.90C12.31 6.90 11.28 7.76 11.28 8.64C11.28 9.20 11.65 9.56 12.21 9.56C12.77 9.56 13.13 9.20 13.13 8.64C13.13 8.23 12.89 8.02 12.68 7.92L12.68 7.87C12.94 7.76 13.30 7.67 13.72 7.67C14.80 7.67 15.29 8.29 15.29 9.41L15.29 10.33L14.28 10.33C11.97 10.33 10.99 11.07 10.99 12.49C10.99 13.75 11.76 14.52 13.23 14.52ZM13.90 13.50C13.16 13.50 12.70 13.17 12.70 12.53L12.70 12.28C12.70 11.48 13.17 11.05 14.45 11.05L15.29 11.05L15.29 12.28C15.29 13.13 14.70 13.50 13.90 13.50ZM20.79 5.75C21.43 5.75 21.81 5.35 21.81 4.79L21.81 4.72C21.81 4.16 21.43 3.75 20.79 3.75C20.15 3.75 19.77 4.16 19.77 4.72L19.77 4.79C19.77 5.35 20.15 5.75 20.79 5.75ZM18.98 14.35L22.60 14.35L22.60 13.57L21.63 13.57L21.63 6.90L18.98 7.42L18.98 8.06L19.95 8.25L19.95 13.57L18.98 13.57ZM23.46 14.35L27.08 14.35L27.08 13.57L26.11 13.57L26.11 3.57L23.46 4.09L23.46 4.73L24.43 4.91L24.43 13.57L23.46 13.57ZM29.32 17.32C30.56 17.32 31.21 16.37 31.63 15.36L34.66 7.87L35.36 7.87L35.36 7.07L32.75 7.07L32.75 7.87L33.66 7.87L31.95 12.60L31.88 12.60L30.10 7.87L31.01 7.87L31.01 7.07L27.58 7.07L27.58 7.87L28.28 7.87L31.07 14.66L30.83 15.26C30.45 16.21 30.00 16.67 29.51 16.67C29.40 16.67 29.33 16.66 29.25 16.63L29.23 16.58C29.37 16.49 29.53 16.27 29.53 15.99C29.53 15.48 29.20 15.11 28.66 15.11C28.06 15.11 27.72 15.48 27.72 16.06C27.72 16.77 28.25 17.32 29.32 17.32ZM38.67 14.35L40.38 14.35L42.45 6.75L42.50 6.75L44.62 14.35L46.33 14.35L48.61 5.36L49.34 5.36L49.34 4.58L46.35 4.58L46.35 5.36L47.56 5.36L45.85 12.63L45.79 12.63L43.65 4.58L42.08 4.58L40.00 12.63L39.94 12.63L38.22 5.36L39.42 5.36L39.42 4.58L35.66 4.58L35.66 5.36L36.39 5.36ZM51.66 14.52C52.98 14.52 53.49 13.89 53.77 13.27L53.84 13.27L53.84 13.30C53.84 14.01 54.25 14.52 55.15 14.52C55.64 14.52 56.10 14.39 56.36 14.24L56.36 13.58L55.40 13.58L55.40 9.27C55.40 7.78 54.45 6.90 52.67 6.90C50.74 6.90 49.71 7.76 49.71 8.64C49.71 9.20 50.08 9.56 50.64 9.56C51.20 9.56 51.56 9.20 51.56 8.64C51.56 8.23 51.32 8.02 51.11 7.92L51.11 7.87C51.37 7.76 51.73 7.67 52.15 7.67C53.23 7.67 53.72 8.29 53.72 9.41L53.72 10.33L52.71 10.33C50.40 10.33 49.42 11.07 49.42 12.49C49.42 13.75 50.19 14.52 51.66 14.52ZM52.33 13.50C51.59 13.50 51.13 13.17 51.13 12.53L51.13 12.28C51.13 11.48 51.60 11.05 52.88 11.05L53.72 11.05L53.72 12.28C53.72 13.13 53.13 13.50 52.33 13.50ZM57.23 14.35L60.84 14.35L60.84 13.57L59.88 13.57L59.88 3.57L57.23 4.09L57.23 4.73L58.20 4.91L58.20 13.57L57.23 13.57ZM61.71 14.35L65.30 14.35L65.30 13.57L64.36 13.57L64.36 11.86L65.44 10.75L67.16 13.57L66.39 13.57L66.39 14.35L69.82 14.35L69.82 13.57L69.05 13.57L66.57 9.70L68.40 7.87L69.51 7.87L69.51 7.07L66.22 7.07L66.22 7.87L67.19 7.87L65.46 9.69L64.44 10.84L64.36 10.84L64.36 3.57L61.71 4.09L61.71 4.73L62.68 4.91L62.68 13.57L61.71 13.57ZM73.78 14.52C75.49 14.52 76.45 13.48 76.80 12.53L76.16 12.15C75.82 12.85 75.19 13.37 74.10 13.37C72.88 13.37 72.09 12.56 72.09 11.16L72.09 10.71L76.96 10.71L76.96 10.30C76.96 8.27 75.71 6.90 73.68 6.90C71.68 6.90 70.27 8.40 70.27 10.71C70.27 12.95 71.54 14.52 73.78 14.52ZM72.09 9.74C72.09 8.44 72.66 7.73 73.70 7.73C74.72 7.73 75.22 8.47 75.22 9.77L75.22 9.94L72.09 9.94ZM78.13 14.35L82.03 14.35L82.03 13.57L80.78 13.57L80.78 9.24C80.78 8.55 81.52 7.76 82.22 7.76C82.35 7.76 82.42 7.77 82.47 7.78L82.49 7.83C82.31 7.87 82.14 8.11 82.14 8.43C82.14 8.89 82.50 9.25 83.10 9.25C83.71 9.25 84.07 8.86 84.07 8.19C84.07 7.38 83.50 6.90 82.61 6.90C81.62 6.90 81.07 7.53 80.81 8.20L80.74 8.20L80.74 6.90L78.13 7.42L78.13 8.06L79.10 8.25L79.10 13.57L78.13 13.57Z"></path></g><!----><g data-v-423bf9ae="" id="363314e7-365e-44d7-afca-5c230ec563cc" transform="matrix(2.8125,0,0,2.8125,0,0)" stroke="none" fill="white"><path d="M15.965 16.258l.707-.707 10.39 10.39-.707.707z"></path><path d="M4.935 26.357L26.018 5.274l.707.707L5.642 27.065z"></path><path d="M31 1v4.194h-4.194V1H31m1-1h-6.194v6.194H32V0zM31 26.806V31h-4.194v-4.194H31m1-1h-6.194V32H32v-6.194zM5.194 26.806V31H1v-4.194h4.194m1-1H0V32h6.194v-6.194z"></path></g><!----></svg>